<svg width="22" height="22" viewBox="0 0 22 22" fill="none" xmlns="http://www.w3.org/2000/svg">
<path d="M11 0.833328C12.0543 0.833328 12.9181 1.64921 12.9945 2.68407L13 2.83333V8.99899L19.1666 9C20.2712 9 21.1666 9.89543 21.1666 11C21.1666 12.0544 20.3508 12.9182 19.3159 12.9945L19.1666 13L13 12.999V19.1667C13 20.2712 12.1045 21.1667 11 21.1667C9.94562 21.1667 9.08181 20.3508 9.00547 19.3159L8.99998 19.1667V12.999L2.83331 13C1.72874 13 0.833313 12.1046 0.833313 11C0.833313 9.94563 1.64919 9.08183 2.68405 9.00548L2.83331 9L8.99998 8.99899V2.83333C8.99998 1.72876 9.89541 0.833328 11 0.833328Z" fill="#193251"/>
</svg>
