<svg width="25" height="24" viewBox="0 0 25 24" fill="none" xmlns="http://www.w3.org/2000/svg">
<path fill-rule="evenodd" clip-rule="evenodd" d="M8.23458 7.2288L0.825543 8.30177L0.71598 8.32379C0.00767595 8.50741 -0.252463 9.41029 0.291856 9.93924L5.65288 15.1498L4.38762 22.5059L4.37507 22.6116C4.32751 23.3425 5.11049 23.8714 5.78483 23.5179L12.4119 20.0448L19.039 23.5179L19.136 23.5625C19.8185 23.8334 20.565 23.2545 20.4362 22.5059L19.17 15.1498L24.532 9.93924L24.6076 9.85723C25.0724 9.29362 24.7505 8.41074 23.9983 8.30177L16.5883 7.2288L13.2754 0.535137C12.9222 -0.178379 11.9016 -0.178379 11.5484 0.535137L8.23458 7.2288Z" fill="#E0E4E8"/>
</svg>